<?xml version="1.0" encoding="UTF-8" standalone="no"?>
<!-- Generator: Adobe Illustrator 22.1.0, SVG Export Plug-In . SVG Version: 6.00 Build 0)  -->

<svg
   xmlns:dc="http://purl.org/dc/elements/1.1/"
   xmlns:cc="http://creativecommons.org/ns#"
   xmlns:rdf="http://www.w3.org/1999/02/22-rdf-syntax-ns#"
   xmlns:svg="http://www.w3.org/2000/svg"
   xmlns="http://www.w3.org/2000/svg"
   xmlns:sodipodi="http://sodipodi.sourceforge.net/DTD/sodipodi-0.dtd"
   xmlns:inkscape="http://www.inkscape.org/namespaces/inkscape"
   version="1.1"
   id="Layer_1"
   x="0px"
   y="0px"
   viewBox="0 0 2469.7 2469.8"
   style="enable-background:new 0 0 2469.7 2469.8;"
   xml:space="preserve"
   inkscape:version="0.91 r13725"
   sodipodi:docname="google-tag-manager.svg"><metadata
     id="metadata4226"><rdf:RDF><cc:Work
         rdf:about=""><dc:format>image/svg+xml</dc:format><dc:type
           rdf:resource="http://purl.org/dc/dcmitype/StillImage" /></cc:Work></rdf:RDF></metadata><defs
     id="defs4224" /><sodipodi:namedview
     pagecolor="#ffffff"
     bordercolor="#666666"
     borderopacity="1"
     objecttolerance="10"
     gridtolerance="10"
     guidetolerance="10"
     inkscape:pageopacity="0"
     inkscape:pageshadow="2"
     inkscape:window-width="1920"
     inkscape:window-height="1016"
     id="namedview4222"
     showgrid="false"
     inkscape:zoom="0.12167802"
     inkscape:cx="1452.6379"
     inkscape:cy="1027.1035"
     inkscape:window-x="0"
     inkscape:window-y="27"
     inkscape:window-maximized="1"
     inkscape:current-layer="Layer_1" /><style
     type="text/css"
     id="style4210">
	.st0{fill:#8AB4F8;}
	.st1{fill:#4285F4;}
	.st2{fill:#246FDB;}
</style><path
     d="m 1234.5508,-0.05078125 c -79.025,0 -158.0516,30.15117225 -218.3516,90.45117225 C 895.59922,211.00039 895.59922,406.5 1016.1992,527 l 708.8477,708.4668 -492.0723,497.0937 211.625,215.7403 -210.6308,211.6152 215.832,216.084 920.2383,-914.4922 c 3.0639,-2.8303 6.0857,-5.7297 9.0605,-8.707 120.6,-120.6 120.6,-316.1016 0,-436.6016 l -0.4004,0 -925.7988,-925.798809 c -60.3,-60.3 -139.3246,-90.45117225 -218.3496,-90.45117225 z"
     id="path4214"
     inkscape:connector-curvature="0"
     style="opacity:0.7" /><path
     d="M 1011.709,94.992188 90.5,1016.1992 c -120.6,120.5 -120.699219,315.8004 -0.199219,436.4004 L 90.5,1452.8008 1016.3008,2378.5996 1444.5996,1948.3008 745,1235.0996 1234.6738,745.35742 1016.1992,527 C 897.11711,408.01664 895.62446,215.91253 1011.709,94.992188 Z"
     id="path4216"
     inkscape:connector-curvature="0"
     style="opacity:0.85" /><circle
     id="circle4220"
     r="306"
     cy="2163.8999"
     cx="1231.2" /></svg>